<?xml version="1.0" encoding="utf-8"?>
<!-- Generator: Adobe Illustrator 28.0.0, SVG Export Plug-In . SVG Version: 6.00 Build 0)  -->
<svg version="1.1" id="Capa_1" xmlns="http://www.w3.org/2000/svg" xmlns:xlink="http://www.w3.org/1999/xlink" x="0px" y="0px"
	 viewBox="0 0 411 186" style="enable-background:new 0 0 411 186;" xml:space="preserve">
<style type="text/css">
	.st0{fill:#ED1B24;}
	.st1{fill:none;stroke:#FFFFFF;stroke-width:1.67;}
	.st2{fill:#FFFFFF;}
	.st3{font-family:'MyriadPro-Regular';}
	.st4{font-size:114.7545px;}
	.st5{font-size:51.1201px;}
</style>
<rect class="st0" width="411" height="186"/>
<g>
	<circle class="st1" cx="390.6" cy="33.7" r="8.8"/>
	<path class="st2" d="M387.2,38.2V29h4.1c0.8,0,1.4,0.1,1.9,0.2c0.4,0.2,0.8,0.5,1,0.9c0.2,0.4,0.4,0.9,0.4,1.4
		c0,0.6-0.2,1.2-0.6,1.6s-1.1,0.7-2,0.8c0.3,0.2,0.6,0.3,0.7,0.5c0.4,0.3,0.7,0.7,1,1.2l1.6,2.5h-1.5l-1.2-1.9
		c-0.4-0.5-0.6-1-0.9-1.3c-0.2-0.3-0.4-0.5-0.6-0.6c-0.2-0.1-0.4-0.2-0.5-0.2c-0.1,0-0.4,0-0.7,0h-1.4v4.1L387.2,38.2L387.2,38.2z
		 M388.5,33h2.6c0.5,0,1-0.1,1.3-0.2c0.3-0.1,0.5-0.3,0.7-0.5s0.2-0.5,0.2-0.8c0-0.4-0.2-0.8-0.5-1.1c-0.3-0.3-0.8-0.4-1.5-0.4h-2.9
		L388.5,33L388.5,33z"/>
</g>
<text transform="matrix(1.2579 0 0 1 17.465 108.406)" class="st2 st3 st4">LUPIN</text>
<text transform="matrix(1.1937 0 0 1 51.5164 163.258)" class="st2 st3 st5"> THE THIRD</text>
</svg>
